<?xml version="1.0" standalone="no"?>
<!DOCTYPE svg PUBLIC "-//W3C//DTD SVG 20010904//EN"
 "http://www.w3.org/TR/2001/REC-SVG-20010904/DTD/svg10.dtd">
<svg version="1.0" xmlns="http://www.w3.org/2000/svg"
 width="400.000000pt" height="400.000000pt" viewBox="0 0 400.000000 400.000000"
 preserveAspectRatio="xMidYMid meet">
<metadata>
Created by potrace 1.14, written by Peter Selinger 2001-2017
</metadata>
<g transform="translate(0.000000,400.000000) scale(0.100000,-0.100000)"
fill="#000000" stroke="none">
<path d="M1383 2933 c-8 -3 -13 -25 -13 -62 0 -50 -3 -59 -30 -83 -42 -37 -42
-89 1 -129 24 -22 30 -35 27 -60 -3 -27 -9 -34 -42 -46 -22 -7 -54 -28 -72
-46 -66 -66 -64 -37 -64 -780 0 -761 -2 -735 75 -813 85 -85 32 -79 730 -79
l620 0 46 32 c55 38 97 85 116 130 10 26 13 166 13 724 0 762 3 723 -63 787
-18 17 -50 38 -72 45 -33 12 -40 19 -43 44 -2 23 4 38 27 61 42 42 43 92 1
134 -25 24 -30 38 -30 77 0 26 -5 52 -12 59 -9 9 -157 12 -608 11 -327 0 -601
-3 -607 -6z m1167 -83 l0 -30 -520 0 c-473 0 -521 -2 -527 -16 -3 -9 -2 -24 4
-33 9 -14 68 -17 554 -21 536 -5 544 -5 544 -25 0 -20 -7 -20 -615 -20 -578 0
-615 1 -618 18 -2 10 4 20 15 24 40 14 53 35 53 85 l0 48 555 0 555 0 0 -30z
m0 -250 l0 -30 -555 0 -555 0 0 30 0 30 555 0 555 0 0 -30z m110 -115 c15 -8
38 -30 49 -48 21 -34 21 -41 21 -716 l0 -681 -27 -43 c-30 -47 -42 -59 -95
-87 -36 -19 -59 -20 -615 -20 l-578 0 -50 25 c-56 29 -92 74 -106 132 -13 57
-11 1309 2 1357 10 37 41 72 78 88 9 4 303 7 654 7 544 1 642 -1 667 -14z"/>
<path d="M1347 2423 l-37 -26 2 -671 3 -671 28 -37 c33 -43 82 -62 141 -55 22
2 99 28 171 56 149 60 238 76 370 67 95 -6 147 -18 260 -61 128 -49 210 -74
235 -75 43 0 112 42 132 80 17 33 18 75 18 697 l0 662 -24 28 -24 28 -619 3
-618 2 -38 -27z m363 -48 c7 -8 23 -15 35 -15 24 0 38 -19 27 -37 -4 -6 -37
-14 -74 -18 -63 -7 -81 -16 -59 -29 5 -4 21 -2 36 4 38 14 67 -3 63 -38 -3
-25 -7 -27 -50 -30 -27 -2 -48 -7 -48 -13 0 -15 -30 -10 -37 7 -4 12 -8 11
-17 -8 -10 -19 -23 -24 -81 -31 -39 -5 -82 -15 -97 -23 -37 -20 -38 -19 -38
32 0 46 0 46 30 42 18 -3 35 1 41 9 6 7 19 13 29 13 10 0 21 7 24 16 5 13 1
15 -19 10 -18 -5 -30 -1 -42 14 -24 27 -34 25 -31 -7 2 -19 -2 -28 -14 -31
-15 -3 -18 4 -18 41 0 40 2 45 20 40 14 -4 20 0 20 10 0 20 34 31 57 19 10 -5
27 -6 38 -1 11 4 40 8 65 9 25 0 59 7 75 15 40 18 50 18 65 0z m230 1 c0 -18
-33 -30 -60 -21 -37 12 -23 35 20 35 28 0 40 -4 40 -14z m55 4 c-3 -5 -10 -10
-16 -10 -5 0 -9 5 -9 10 0 6 7 10 16 10 8 0 12 -4 9 -10z m58 3 c-7 -2 -19 -2
-25 0 -7 3 -2 5 12 5 14 0 19 -2 13 -5z m402 -5 c-18 -11 -112 -33 -185 -42
-14 -2 -32 -6 -40 -9 -8 -3 -28 -8 -43 -12 -27 -5 -28 -4 -25 27 4 41 15 44
183 46 108 2 127 0 110 -10z m92 -5 c-9 -9 -19 -14 -23 -11 -10 10 6 28 24 28
15 0 15 -1 -1 -17z m-460 -28 c-4 -8 -2 -17 3 -20 6 -4 10 -10 10 -14 0 -10
-52 -33 -66 -30 -5 1 -16 0 -24 -4 -8 -3 -33 -8 -55 -12 -22 -4 -49 -8 -60
-10 -11 -2 -22 -4 -24 -4 -2 -1 2 -8 9 -16 7 -9 21 -13 31 -10 35 11 60 -4 57
-33 -2 -23 -9 -28 -37 -30 -24 -2 -37 1 -43 12 -11 20 -28 12 -28 -12 0 -20
-51 -38 -133 -48 -53 -6 -54 -6 -61 21 -10 40 10 55 79 60 74 6 94 20 65 47
-22 21 -26 53 -8 64 13 8 81 24 118 28 14 2 33 6 43 10 9 5 26 6 37 3 11 -3
23 -1 26 4 3 5 19 9 36 9 22 0 29 -4 25 -15z m520 -22 c-3 -10 -5 -4 -5 12 0
17 2 24 5 18 2 -7 2 -21 0 -30z m-77 -9 c0 -17 -37 -37 -56 -30 -22 9 -17 46
9 55 24 9 47 -3 47 -25z m-80 10 c0 -4 -8 -13 -17 -20 -17 -13 -17 -13 0 -14
26 0 20 -20 -7 -20 -23 0 -42 32 -30 52 6 9 54 11 54 2z m-201 -31 c7 -11 11
-13 11 -5 0 9 10 12 28 10 20 -2 27 -9 28 -26 1 -23 -31 -46 -49 -35 -4 3 -13
0 -20 -5 -11 -8 -91 -22 -155 -27 -12 -1 -28 -7 -34 -13 -7 -7 -15 -12 -19
-12 -12 0 -22 61 -12 71 5 5 42 11 83 15 76 6 110 17 110 34 0 16 18 11 29 -7z
m361 -28 c0 -3 -11 -10 -25 -15 -31 -12 -32 -27 -2 -34 12 -2 5 -4 -15 -2 -20
1 -36 -3 -35 -8 3 -14 -43 -20 -55 -8 -6 6 -6 18 2 32 9 18 18 21 41 16 16 -3
29 -1 29 4 0 4 8 11 18 13 26 7 42 8 42 2z m-162 -54 c2 -29 0 -41 -7 -36 -6
3 -11 17 -11 31 0 15 -6 24 -15 24 -18 0 -20 16 -2 23 24 10 32 0 35 -42z
m-50 -23 c3 -25 0 -28 -27 -28 -36 0 -46 13 -31 40 17 31 54 23 58 -12z m-86
-1 c6 -32 -1 -47 -22 -47 -25 0 -34 41 -13 58 24 17 30 15 35 -11z m-124 -44
c-2 -23 -8 -29 -35 -31 -29 -3 -33 0 -33 21 0 31 7 37 42 37 26 0 29 -3 26
-27z m-604 11 c10 -4 16 -18 16 -39 0 -29 -4 -34 -30 -40 -16 -4 -34 -4 -40 0
-6 4 -17 2 -24 -4 -17 -14 -108 -39 -124 -33 -7 2 -12 19 -12 37 0 30 3 33 38
40 20 4 43 11 49 17 7 6 24 8 38 6 14 -3 30 1 36 8 12 15 28 17 53 8z m526 -3
c0 -5 -6 -12 -12 -14 -10 -4 -9 -8 2 -16 18 -13 1 -35 -21 -26 -19 7 -41 43
-34 55 8 13 65 13 65 1z m-142 -13 c36 -36 -7 -91 -54 -69 -20 9 -27 7 -44
-11 -25 -27 -43 -13 -38 28 2 24 8 30 33 32 16 2 38 10 49 18 25 17 38 18 54
2z m-220 -88 c2 -24 -2 -31 -23 -36 -14 -4 -29 -4 -32 0 -4 3 -13 0 -22 -7 -9
-7 -38 -19 -65 -25 -42 -11 -51 -10 -66 3 -23 21 -40 19 -40 -5 0 -12 -7 -20
-17 -20 -10 0 -26 -7 -36 -14 -16 -13 -16 -14 8 -20 14 -4 25 -11 25 -16 0 -6
12 -10 26 -10 18 0 25 -5 22 -16 -3 -17 -53 -37 -118 -48 l-40 -6 2 87 c3 84
4 88 29 100 15 7 51 14 80 16 30 1 60 8 68 15 8 8 25 12 38 9 13 -2 26 0 29 4
3 5 20 9 37 10 18 0 41 4 52 8 29 12 41 4 43 -29z m177 -255 c0 -20 -6 -31
-17 -33 -15 -3 -18 4 -18 33 0 29 3 36 18 33 11 -2 17 -13 17 -33z m-47 -17
c4 -32 -21 -39 -37 -10 -10 15 -10 15 -11 -3 0 -29 -74 -50 -96 -28 -16 17
-16 16 -8 37 4 10 18 16 38 16 17 0 38 5 46 10 8 6 26 9 40 8 19 -2 26 -10 28
-30z m732 12 c0 -11 -4 -20 -9 -20 -5 0 -13 -9 -16 -21 -5 -15 -14 -20 -35
-17 -15 1 -35 -4 -44 -11 -9 -7 -24 -11 -34 -9 -10 3 -24 -1 -31 -9 -8 -9 -23
-12 -37 -9 -12 3 -26 1 -30 -5 -3 -6 -19 -9 -34 -5 -20 4 -30 1 -34 -11 -4
-10 -14 -14 -33 -10 -16 3 -32 -1 -41 -10 -9 -9 -24 -12 -38 -9 -12 3 -26 2
-29 -4 -10 -16 -43 -12 -55 8 -9 15 -10 14 -5 -5 5 -18 2 -23 -14 -23 -11 0
-23 -5 -26 -10 -4 -6 -11 -8 -16 -4 -6 4 -6 11 2 20 6 8 7 14 2 14 -5 0 -15
-12 -21 -26 -16 -34 -56 -30 -60 7 -4 35 23 57 48 41 12 -7 21 -8 25 -2 4 6
11 8 16 4 5 -3 16 0 24 6 8 7 15 9 15 4 0 -5 5 -1 11 9 7 12 20 17 39 15 15
-1 35 3 43 10 12 10 21 11 36 3 16 -9 22 -8 30 6 9 17 29 21 101 24 14 0 32 7
41 15 9 8 24 12 34 8 9 -4 20 -2 24 5 4 7 36 13 73 14 48 1 64 5 61 15 -3 6 0
12 6 12 6 0 11 -9 11 -20z m-898 -31 c8 -41 -7 -63 -26 -36 -19 25 -46 22 -43
-5 2 -18 -3 -23 -23 -24 -14 0 -31 -3 -38 -8 -15 -9 -118 -36 -139 -36 -9 0
-22 8 -29 18 -12 16 -13 15 -14 -5 0 -14 -6 -23 -15 -23 -10 0 -15 11 -15 35
0 30 4 35 28 41 15 3 34 8 42 10 8 3 39 7 70 11 30 3 61 10 68 15 7 6 25 11
41 12 15 1 36 9 45 19 25 24 39 17 48 -24z m898 -9 c0 -5 -5 -10 -11 -10 -5 0
-7 5 -4 10 3 6 8 10 11 10 2 0 4 -4 4 -10z m-650 -96 c0 -3 -7 -12 -15 -20
-20 -21 -19 -31 5 -39 11 -3 20 -11 20 -16 0 -13 -34 -11 -48 3 -25 25 -8 78
25 78 7 0 13 -3 13 -6z m-148 -58 c16 -38 4 -56 -34 -53 -21 2 -49 -5 -77 -20
-24 -13 -53 -23 -65 -22 -11 1 -32 -3 -46 -8 -14 -6 -28 -9 -32 -6 -4 2 -19
-4 -33 -13 -14 -9 -32 -13 -41 -10 -9 4 -22 2 -28 -2 -6 -5 -28 -12 -48 -15
-37 -6 -38 -5 -38 26 1 36 33 67 72 67 48 0 108 12 108 22 0 6 12 8 29 5 19
-4 33 -1 41 8 7 9 24 15 39 15 14 0 41 2 60 6 31 6 33 5 27 -12 -4 -13 1 -10
16 8 28 34 35 35 50 4z m742 -191 c8 -21 -1 -38 -28 -55 -23 -15 -23 -15 -5
-34 19 -19 19 -19 19 1 0 13 8 23 23 27 38 10 47 7 47 -17 0 -30 -49 -54 -125
-63 -49 -6 -55 -5 -55 11 0 10 14 31 32 47 33 30 28 35 -19 17 -51 -20 -134
-39 -144 -33 -17 10 -9 36 17 61 l27 25 28 -21 c28 -21 29 -21 29 -2 0 15 10
23 37 30 20 6 39 8 43 6 3 -2 12 0 20 6 22 13 47 11 54 -6z m-359 -68 c15 5
39 -32 30 -47 -10 -15 -23 -12 -28 8 -4 14 -6 14 -12 -5 -10 -32 -22 -29 -30
7 -8 34 2 57 17 42 6 -6 16 -8 23 -5z m-52 -39 c8 -30 4 -33 -53 -52 -59 -19
-72 -15 -67 22 3 23 10 28 47 34 23 4 45 10 48 13 11 10 20 4 25 -17z m220
-25 c10 -6 9 -43 -1 -43 -4 0 -13 5 -20 12 -9 9 -12 9 -12 -2 0 -19 -147 -67
-161 -53 -16 16 7 63 31 63 11 0 20 -4 20 -10 0 -5 9 -1 20 10 25 25 47 26 53
3 3 -11 5 -7 6 10 1 25 4 27 29 21 15 -4 30 -9 35 -11z m-353 -3 c0 -5 -6 -10
-14 -10 -8 0 -16 -9 -18 -20 -2 -12 -5 -20 -8 -20 -3 1 -17 -3 -32 -9 -34 -13
-58 -5 -58 19 0 31 21 40 113 48 9 1 17 -2 17 -8z m-210 -50 c0 -6 -7 -13 -15
-16 -8 -4 -15 -14 -15 -24 0 -12 -10 -20 -31 -24 -49 -10 -69 -7 -69 9 0 9 -6
12 -15 9 -8 -4 -15 -15 -15 -25 0 -25 -22 -24 -38 1 -9 15 -10 26 -2 40 13 24
50 36 60 20 6 -9 12 -9 30 0 12 6 27 9 34 7 7 -3 19 -1 27 4 19 12 49 11 49
-1z m360 0 c0 -5 -5 -10 -10 -10 -6 0 -15 -11 -20 -25 -5 -14 -15 -25 -22 -26
-7 0 14 -9 47 -19 33 -10 53 -19 45 -19 -8 0 -37 6 -63 14 -103 31 -247 27
-376 -11 l-23 -7 23 27 c22 26 59 36 59 15 0 -5 3 -8 8 -6 17 11 91 20 144 18
49 -2 57 1 63 18 3 12 16 23 28 26 12 2 31 6 42 8 37 8 55 7 55 -3z m-636 -87
c4 -14 3 -29 -3 -32 -6 -4 -4 -16 4 -31 11 -19 14 -21 15 -8 0 19 42 34 61 22
9 -5 10 -2 6 10 -4 11 -1 19 10 23 9 4 18 2 20 -4 3 -8 15 -8 39 -1 54 14 52
2 -3 -17 -26 -10 -72 -28 -102 -41 -33 -15 -63 -22 -80 -18 -20 4 -23 3 -11
-5 12 -9 11 -11 -7 -11 -40 0 -68 17 -88 54 -17 31 -18 38 -5 50 23 22 65 25
64 4 -1 -10 2 -18 7 -18 5 0 9 8 9 18 0 24 9 32 36 32 15 0 24 -8 28 -27z
m761 -34 c22 -10 29 -16 16 -13 -37 10 -88 33 -71 33 8 0 33 -9 55 -20z m140
-50 c22 -11 29 -16 15 -13 -14 4 -43 15 -65 25 -22 11 -29 16 -15 13 14 -4 43
-15 65 -25z m89 -28 c4 -5 -3 -7 -14 -4 -23 6 -26 13 -6 13 8 0 17 -4 20 -9z"/>
<path d="M1526 2282 c-10 -9 5 -22 24 -22 29 0 33 17 5 22 -13 3 -27 3 -29 0z"/>
<path d="M2545 1771 c-3 -5 -1 -12 5 -16 5 -3 10 1 10 9 0 18 -6 21 -15 7z"/>
<path d="M2480 1744 c0 -8 5 -12 10 -9 6 3 10 10 10 16 0 5 -4 9 -10 9 -5 0
-10 -7 -10 -16z"/>
<path d="M2410 1730 c0 -5 5 -10 10 -10 6 0 10 5 10 10 0 6 -4 10 -10 10 -5 0
-10 -4 -10 -10z"/>
<path d="M2340 1715 c0 -8 5 -15 10 -15 6 0 10 7 10 15 0 8 -4 15 -10 15 -5 0
-10 -7 -10 -15z"/>
<path d="M2270 1700 c0 -5 5 -10 10 -10 6 0 10 5 10 10 0 6 -4 10 -10 10 -5 0
-10 -4 -10 -10z"/>
<path d="M2130 1665 c0 -9 5 -15 11 -13 6 2 11 8 11 13 0 5 -5 11 -11 13 -6 2
-11 -4 -11 -13z"/>
<path d="M1995 1630 c3 -5 10 -10 16 -10 5 0 9 5 9 10 0 6 -7 10 -16 10 -8 0
-12 -4 -9 -10z"/>
<path d="M1920 1240 c-12 -8 -11 -10 8 -10 12 0 22 5 22 10 0 13 -11 13 -30 0z"/>
<path d="M2066 1181 c-4 -5 3 -7 14 -4 23 6 26 13 6 13 -8 0 -17 -4 -20 -9z"/>
<path d="M1380 1104 c0 -7 9 -22 19 -35 18 -23 20 -23 38 -7 14 13 22 15 30 7
7 -7 12 -5 17 6 5 14 0 15 -38 10 -36 -6 -46 -4 -55 12 -6 10 -11 13 -11 7z"/>
</g>
</svg>
